PathFileType  4	(X/Y/Z) /Users/mattheworga/Documents/Git/DLSU/thesis/database/S00_Demo-Batch/P00_Demo-man/T00_Trial/pose-3d
DataRate	CameraRate	NumFrames	NumMarkers	Units	OrigDataRate	OrigDataStartFrame	OrigNumFrames
60.0	60.0	16	22	m	60.0	40	100
Frame#	Time	Hip			RHip			RKnee			RAnkle			RBigToe			RSmallToe			RHeel			LHip			LKnee			LAnkle			LBigToe			LSmallToe			LHeel			Neck			Head			Nose			RShoulder			RElbow			RWrist			LShoulder			LElbow			LWrist			
		X1	Y1	Z1	X2	Y2	Z2	X3	Y3	Z3	X4	Y4	Z4	X5	Y5	Z5	X6	Y6	Z6	X7	Y7	Z7	X8	Y8	Z8	X9	Y9	Z9	X10	Y10	Z10	X11	Y11	Z11	X12	Y12	Z12	X13	Y13	Z13	X14	Y14	Z14	X15	Y15	Z15	X16	Y16	Z16	X17	Y17	Z17	X18	Y18	Z18	X19	Y19	Z19	X20	Y20	Z20	X21	Y21	Z21	X22	Y22	Z22	

41	0.6666667	-0.1100178	0.9305470	-1.0686308	-0.2191197	0.9809177	-1.0589954	-0.5092216	0.7071263	-0.9536695	-0.7110976	0.3738663	-1.0441170	-0.7765922	0.2880773	-0.8910694	-0.8087129	0.3017455	-0.9540829	-0.7027134	0.3067055	-1.1012744	-0.0319387	0.8640927	-1.0622466	-0.0651683	0.4802280	-0.9546845	-0.0253932	0.1568180	-1.1449206	-0.0320567	0.0805850	-0.9912334	0.0168183	0.0753819	-1.0285142	-0.0168274	0.1107943	-1.2020284	0.2367212	1.3341736	-1.0622947	0.3708141	1.4997284	-0.9393734	0.2880313	1.3589296	-0.9195772	0.0646789	1.4064506	-1.1420450	-0.1921562	1.4513281	-1.1996929	-0.2165106	1.6235132	-0.9572003	0.3381941	1.1659675	-1.1009344	0.3567663	0.8909765	-1.0823100	0.3485874	0.6396694	-0.9946934
42	0.6833333	-0.1127152	0.9315549	-1.0662063	-0.2194424	0.9832342	-1.0556438	-0.5153136	0.7149907	-0.9459513	-0.7299617	0.3896573	-1.0290901	-0.7924911	0.2995998	-0.8810470	-0.8234713	0.3111062	-0.9456532	-0.7203232	0.3196145	-1.0929828	-0.0338179	0.8636358	-1.0612161	-0.0660816	0.4798076	-0.9528276	-0.0262636	0.1573978	-1.1444262	-0.0304348	0.0796342	-0.9941536	0.0170898	0.0740479	-1.0324449	-0.0194401	0.1107656	-1.2009971	0.2379806	1.3306212	-1.0572005	0.3735201	1.4919405	-0.9350006	0.2928098	1.3525225	-0.9159476	0.0658688	1.4056142	-1.1327797	-0.1908874	1.4562644	-1.1924981	-0.2023831	1.6304872	-0.9425592	0.3385587	1.1624467	-1.0986026	0.3585110	0.8881508	-1.0808795	0.3535326	0.6377585	-0.9934303
43	0.7000000	-0.1154353	0.9324145	-1.0647832	-0.2172662	0.9843616	-1.0567379	-0.5208056	0.7222064	-0.9388494	-0.7481171	0.4055045	-1.0131240	-0.8070951	0.3120808	-0.8714175	-0.8355828	0.3206553	-0.9381467	-0.7371090	0.3338879	-1.0843016	-0.0355696	0.8634124	-1.0602671	-0.0664601	0.4794942	-0.9514590	-0.0266905	0.1578652	-1.1441099	-0.0285510	0.0791438	-0.9976414	0.0170992	0.0730963	-1.0369096	-0.0214672	0.1107733	-1.2001795	0.2390417	1.3272794	-1.0515433	0.3766418	1.4859911	-0.9296324	0.2984449	1.3474368	-0.9125344	0.0665298	1.4048194	-1.1220594	-0.1893529	1.4614675	-1.1815946	-0.1881216	1.6360343	-0.9268432	0.3382717	1.1594484	-1.0959096	0.3599973	0.8856338	-1.0796186	0.3586756	0.6367686	-0.9926082
44	0.7166667	-0.1180133	0.9333490	-1.0633755	-0.2145403	0.9849691	-1.0591181	-0.5254599	0.7286527	-0.9319993	-0.7648317	0.4203153	-0.9969522	-0.8211762	0.3254836	-0.8619363	-0.8454054	0.3308101	-0.9305975	-0.7530166	0.3485075	-1.0750770	-0.0372294	0.8639316	-1.0581957	-0.0663708	0.4793552	-0.9505506	-0.0266451	0.1583330	-1.1439713	-0.0268483	0.0791727	-1.0014487	0.0164851	0.0725207	-1.0414564	-0.0227265	0.1109357	-1.1997385	0.2399414	1.3241463	-1.0453130	0.3798832	1.4812471	-0.9230276	0.3038189	1.3434529	-0.9092643	0.0672844	1.4042196	-1.1103541	-0.1875164	1.4668680	-1.1674002	-0.1740622	1.6401478	-0.9106596	0.3375343	1.1568904	-1.0931293	0.3611521	0.8833174	-1.0782096	0.3640036	0.6364961	-0.9919499
45	0.7333333	-0.1201889	0.9347106	-1.0604892	-0.2128297	0.9856684	-1.0602561	-0.5291428	0.7343305	-0.9250049	-0.7791638	0.4330959	-0.9814215	-0.8356565	0.3392497	-0.8522267	-0.8534880	0.3416207	-0.9222324	-0.7678730	0.3623564	-1.0651221	-0.0390029	0.8651233	-1.0553059	-0.0660898	0.4794089	-0.9500205	-0.0262892	0.1589474	-1.1438709	-0.0256196	0.0795236	-1.0052023	0.0150962	0.0721483	-1.0456223	-0.0232495	0.1113553	-1.1996494	0.2408131	1.3214029	-1.0387133	0.3827701	1.4771292	-0.9150827	0.3079260	1.3403060	-0.9055449	0.0685961	1.4040726	-1.0981911	-0.1853650	1.4723074	-1.1506233	-0.1604743	1.6429956	-0.8944083	0.3365078	1.1547545	-1.0905425	0.3619853	0.8811106	-1.0765477	0.3693675	0.6365839	-0.9913881
46	0.7500000	-0.1218530	0.9366345	-1.0553562	-0.2127056	0.9867662	-1.0593526	-0.5318197	0.7392781	-0.9176220	-0.7903208	0.4434140	-0.9669936	-0.8504846	0.3524285	-0.8418190	-0.8602047	0.3526378	-0.9128428	-0.7814314	0.3746287	-1.0542139	-0.0411043	0.8665821	-1.0527394	-0.0659631	0.4796572	-0.9497893	-0.0258614	0.1597903	-1.1435919	-0.0249246	0.0799099	-1.0085003	0.0132574	0.0718987	-1.0489660	-0.0232417	0.1120282	-1.1996932	0.2417783	1.3192877	-1.0319775	0.3851447	1.4734256	-0.9061357	0.3108684	1.3378518	-0.9012181	0.0705152	1.4045651	-1.0856941	-0.1829859	1.4776093	-1.1320124	-0.1474956	1.6449132	-0.8784517	0.3352214	1.1531237	-1.0882622	0.3625383	0.8790324	-1.0746537	0.3744866	0.6365544	-0.9908713
47	0.7666667	-0.1232238	0.9388768	-1.0487433	-0.2140291	0.9883312	-1.0568104	-0.5334492	0.7435138	-0.9097411	-0.7980157	0.4513029	-0.9533979	-0.8639272	0.3640036	-0.8302493	-0.8657758	0.3630513	-0.9025787	-0.7935592	0.3847404	-1.0419643	-0.0436020	0.8679950	-1.0513148	-0.0661820	0.4801286	-0.9498332	-0.0255739	0.1607258	-1.1430775	-0.0246893	0.0802143	-1.0110668	0.0118250	0.0719570	-1.0509740	-0.0230198	0.1127767	-1.1996138	0.2428613	1.3180095	-1.0251789	0.3872517	1.4702087	-0.8968450	0.3133702	1.3359788	-0.8965560	0.0727040	1.4057222	-1.0728189	-0.1806124	1.4825977	-1.1122779	-0.1351712	1.6463901	-0.8631351	0.3337346	1.1520970	-1.0862602	0.3628782	0.8772496	-1.0726326	0.3790881	0.6359109	-0.9902260
48	0.7833333	-0.1246382	0.9410686	-1.0421320	-0.2163002	0.9902770	-1.0534050	-0.5339525	0.7470385	-0.9013380	-0.8023163	0.4568701	-0.9401524	-0.8732697	0.3731563	-0.8172139	-0.8703873	0.3719096	-0.8917935	-0.8042244	0.3921506	-1.0279723	-0.0463804	0.8693139	-1.0510068	-0.0666990	0.4808446	-0.9501773	-0.0255305	0.1614334	-1.1424723	-0.0248091	0.0805046	-1.0127522	0.0116774	0.0725533	-1.0512029	-0.0228564	0.1133679	-1.1993325	0.2439874	1.3176645	-1.0182213	0.3893790	1.4675542	-0.8877169	0.3158014	1.3344822	-0.8915222	0.0746654	1.4073743	-1.0600474	-0.1785790	1.4870982	-1.0920363	-0.1235419	1.6478259	-0.8486569	0.3322663	1.1516544	-1.0842668	0.3631544	0.8760838	-1.0707756	0.3830959	0.6344668	-0.9893841
49	0.8000000	-0.1262716	0.9430207	-1.0367319	-0.2188522	0.9924381	-1.0498267	-0.5332316	0.7498449	-0.8924762	-0.8032883	0.4600887	-0.9270644	-0.8765123	0.3794634	-0.8026258	-0.8742545	0.3784392	-0.8810741	-0.8131079	0.3964478	-1.0122576	-0.0491378	0.8707647	-1.0510795	-0.0673136	0.4817356	-0.9508465	-0.0256720	0.1616438	-1.1419383	-0.0251765	0.0808398	-1.0135586	0.0128668	0.0736035	-1.0498797	-0.0228099	0.1137013	-1.1989941	0.2450311	1.3181483	-1.0110181	0.3914934	1.4654351	-0.8788626	0.3179185	1.3331705	-0.8856725	0.0759678	1.4091579	-1.0485596	-0.1771858	1.4909783	-1.0717632	-0.1126332	1.6491761	-0.8350128	0.3310927	1.1516323	-1.0816558	0.3635512	0.8758506	-1.0693897	0.3866050	0.6325094	-0.9884923
50	0.8166667	-0.1281694	0.9447712	-1.0333734	-0.2210853	0.9946798	-1.0465858	-0.5311601	0.7519136	-0.8832935	-0.8008430	0.4607943	-0.9140620	-0.8733192	0.3828516	-0.7868963	-0.8775306	0.3823185	-0.8710991	-0.8192348	0.3975151	-0.9954593	-0.0514803	0.8726821	-1.0508178	-0.0677873	0.4826891	-0.9518811	-0.0258028	0.1612870	-1.1416083	-0.0256850	0.0811904	-1.0137997	0.0145387	0.0746963	-1.0481097	-0.0226971	0.1137835	-1.1988768	0.2458491	1.3191795	-1.0036373	0.3933072	1.4638110	-0.8702211	0.3193178	1.3320129	-0.8788503	0.0764396	1.4107287	-1.0392070	-0.1765499	1.4942020	-1.0519060	-0.1023231	1.6500823	-0.8217067	0.3302999	1.1518974	-1.0779592	0.3641659	0.8766050	-1.0684381	0.3897503	0.6305666	-0.9876804
51	0.8333333	-0.1303967	0.9464260	-1.0326352	-0.2226939	0.9969306	-1.0440443	-0.5276436	0.7532024	-0.8738767	-0.7948317	0.4587543	-0.9009190	-0.8645229	0.3833944	-0.7711396	-0.8797765	0.3836564	-0.8622159	-0.8211361	0.3955239	-0.9784346	-0.0531503	0.8752084	-1.0501387	-0.0678930	0.4836665	-0.9534250	-0.0256950	0.1604483	-1.1416842	-0.0262480	0.0815056	-1.0140107	0.0157510	0.0754134	-1.0471378	-0.0222623	0.1135477	-1.1992743	0.2462428	1.3203944	-0.9962759	0.3945758	1.4626075	-0.8618148	0.3198332	1.3310201	-0.8715354	0.0762269	1.4120016	-1.0315578	-0.1765693	1.4968539	-1.0329527	-0.0923728	1.6502754	-0.8078323	0.3296642	1.1524621	-1.0734003	0.3649983	0.8781627	-1.0675504	0.3927055	0.6291557	-0.9869536
52	0.8500000	-0.1330027	0.9479845	-1.0348181	-0.2237113	0.9990804	-1.0422664	-0.5227260	0.7535802	-0.8641941	-0.7851970	0.4537895	-0.8874066	-0.8510129	0.3812319	-0.7564328	-0.8793612	0.3826473	-0.8539672	-0.8174350	0.3908195	-0.9615759	-0.0542139	0.8781709	-1.0494929	-0.0674389	0.4846958	-0.9557230	-0.0251683	0.1592891	-1.1423331	-0.0267668	0.0817231	-1.0145161	0.0161372	0.0755675	-1.0474674	-0.0213766	0.1128405	-1.2003120	0.2459921	1.3214468	-0.9891093	0.3951862	1.4616235	-0.8536646	0.3194898	1.3300572	-0.8643561	0.0755940	1.4130619	-1.0244510	-0.1770336	1.4990567	-1.0152042	-0.0828271	1.6495986	-0.7934183	0.3288760	1.1533594	-1.0684728	0.3660360	0.8803246	-1.0664004	0.3956471	0.6286573	-0.9863068
53	0.8666667	-0.1358277	0.9493585	-1.0395560	-0.2243641	1.0008980	-1.0409359	-0.5165459	0.7527856	-0.8542283	-0.7720002	0.4459460	-0.8736404	-0.8332229	0.3764361	-0.7432993	-0.8739643	0.3793939	-0.8451111	-0.8073782	0.3837628	-0.9446199	-0.0549878	0.8812437	-1.0495097	-0.0663753	0.4858247	-0.9588812	-0.0241432	0.1580158	-1.1434285	-0.0270967	0.0817462	-1.0151197	0.0160112	0.0752105	-1.0485297	-0.0200766	0.1116121	-1.2017862	0.2450391	1.3221580	-0.9821604	0.3951036	1.4606469	-0.8455844	0.3184429	1.3289036	-0.8575685	0.0746707	1.4139948	-1.0170365	-0.1777986	1.5008434	-0.9985415	-0.0743274	1.6478990	-0.7802428	0.3278137	1.1545615	-1.0633627	0.3672636	0.8828925	-1.0649858	0.3985956	0.6292280	-0.9857248
54	0.8833333	-0.1384193	0.9505552	-1.0453342	-0.2249002	1.0021279	-1.0396596	-0.5091664	0.7505228	-0.8441174	-0.7553777	0.4355672	-0.8601326	-0.8108653	0.3687932	-0.7318206	-0.8618559	0.3740995	-0.8343180	-0.7910776	0.3746810	-0.9273504	-0.0558073	0.8841819	-1.0506696	-0.0648795	0.4871246	-0.9626936	-0.0226920	0.1568667	-1.1445757	-0.0271290	0.0815154	-1.0151521	0.0160685	0.0745381	-1.0489885	-0.0184791	0.1100309	-1.2033077	0.2435559	1.3226222	-0.9752227	0.3943730	1.4596692	-0.8372716	0.3170310	1.3275286	-0.8511022	0.0733612	1.4148889	-1.0089767	-0.1789188	1.5021564	-0.9826024	-0.0677677	1.6450936	-0.7704810	0.3265415	1.1560270	-1.0579432	0.3686359	0.8856098	-1.0635897	0.4014181	0.6308555	-0.9851010
55	0.9000000	-0.1402863	0.9516977	-1.0501416	-0.2254886	1.0026832	-1.0382357	-0.5004930	0.7465830	-0.8341628	-0.7355509	0.4231668	-0.8475834	-0.7824724	0.3579500	-0.7211968	-0.8424293	0.3671271	-0.8209582	-0.7694834	0.3639474	-0.9106391	-0.0568503	0.8869137	-1.0529817	-0.0633193	0.4886806	-0.9668044	-0.0210168	0.1560694	-1.1454641	-0.0268845	0.0810874	-1.0138032	0.0167340	0.0737518	-1.0476920	-0.0166975	0.1083878	-1.2046682	0.2417969	1.3230966	-0.9679248	0.3930681	1.4589480	-0.8286442	0.3155575	1.3262521	-0.8447362	0.0715110	1.4158321	-1.0001778	-0.1806217	1.5029474	-0.9672001	-0.0637133	1.6411855	-0.7648084	0.3251723	1.1576993	-1.0520114	0.3700869	0.8883810	-1.0623048	0.4040150	0.6334869	-0.9842714
56	0.9166667	-0.1411888	0.9528667	-1.0526724	-0.2261880	1.0027267	-1.0365251	-0.4903623	0.7409080	-0.8247809	-0.7128868	0.4093384	-0.8368046	-0.7465116	0.3436933	-0.7106230	-0.8161704	0.3587754	-0.8058545	-0.7439861	0.3519392	-0.8964345	-0.0580229	0.8894993	-1.0556818	-0.0621679	0.4905429	-0.9708403	-0.0193632	0.1557432	-1.1461001	-0.0264518	0.0806368	-1.0106380	0.0177708	0.0730421	-1.0445314	-0.0148485	0.1069675	-1.2059178	0.2399606	1.3238191	-0.9599619	0.3911773	1.4589337	-0.8199640	0.3140002	1.3255768	-0.8379949	0.0691696	1.4168891	-0.9906610	-0.1831145	1.5032155	-0.9525196	-0.0622990	1.6362451	-0.7615687	0.3237987	1.1595543	-1.0455578	0.3715430	0.8914272	-1.0606555	0.4064016	0.6370585	-0.9831022
